<svg width="24" height="24" viewBox="0 0 24 24" fill="none" xmlns="http://www.w3.org/2000/svg">
<path d="M19.2 19.2C17.868 19.2 16.8 20.268 16.8 21.6C16.8 22.2365 17.0529 22.847 17.5029 23.2971C17.953 23.7471 18.5635 24 19.2 24C19.8365 24 20.447 23.7471 20.8971 23.2971C21.3471 22.847 21.6 22.2365 21.6 21.6C21.6 20.268 20.52 19.2 19.2 19.2ZM0 0V2.4H2.4L6.72 11.508L5.088 14.448C4.908 14.784 4.8 15.18 4.8 15.6C4.8 16.2365 5.05286 16.847 5.50294 17.2971C5.95303 17.7471 6.56348 18 7.2 18H21.6V15.6H7.704C7.62444 15.6 7.54813 15.5684 7.49187 15.5121C7.43561 15.4559 7.404 15.3796 7.404 15.3C7.404 15.24 7.416 15.192 7.44 15.156L8.52 13.2H17.46C18.36 13.2 19.152 12.696 19.56 11.964L23.856 4.2C23.94 4.008 24 3.804 24 3.6C24 3.28174 23.8736 2.97652 23.6485 2.75147C23.4235 2.52643 23.1183 2.4 22.8 2.4H5.052L3.924 0M7.2 19.2C5.868 19.2 4.8 20.268 4.8 21.6C4.8 22.2365 5.05286 22.847 5.50294 23.2971C5.95303 23.7471 6.56348 24 7.2 24C7.83652 24 8.44697 23.7471 8.89706 23.2971C9.34714 22.847 9.6 22.2365 9.6 21.6C9.6 20.268 8.52 19.2 7.2 19.2Z" fill="white"/>
</svg>
