<svg width="24" height="25" viewBox="0 0 24 25" fill="none" xmlns="http://www.w3.org/2000/svg">
<path d="M19.2 19.8129C17.868 19.8129 16.8 20.8809 16.8 22.2129C16.8 22.8494 17.0529 23.4599 17.5029 23.91C17.953 24.3601 18.5635 24.6129 19.2 24.6129C19.8365 24.6129 20.447 24.3601 20.8971 23.91C21.3471 23.4599 21.6 22.8494 21.6 22.2129C21.6 20.8809 20.52 19.8129 19.2 19.8129ZM0 0.612915V3.01292H2.4L6.72 12.1209L5.088 15.0609C4.908 15.3969 4.8 15.7929 4.8 16.2129C4.8 16.8494 5.05286 17.4599 5.50294 17.91C5.95303 18.3601 6.56348 18.6129 7.2 18.6129H21.6V16.2129H7.704C7.62444 16.2129 7.54813 16.1813 7.49187 16.125C7.43561 16.0688 7.404 15.9925 7.404 15.9129C7.404 15.8529 7.416 15.8049 7.44 15.7689L8.52 13.8129H17.46C18.36 13.8129 19.152 13.3089 19.56 12.5769L23.856 4.81292C23.94 4.62092 24 4.41692 24 4.21292C24 3.89466 23.8736 3.58943 23.6485 3.36439C23.4235 3.13934 23.1183 3.01292 22.8 3.01292H5.052L3.924 0.612915M7.2 19.8129C5.868 19.8129 4.8 20.8809 4.8 22.2129C4.8 22.8494 5.05286 23.4599 5.50294 23.91C5.95303 24.3601 6.56348 24.6129 7.2 24.6129C7.83652 24.6129 8.44697 24.3601 8.89706 23.91C9.34714 23.4599 9.6 22.8494 9.6 22.2129C9.6 20.8809 8.52 19.8129 7.2 19.8129Z" fill="white"/>
</svg>
